{
   "accessors" : [
      {
         "bufferView" : 0,
         "componentType" : 5123,
         "count" : 1968,
         "max" : [ 1967 ],
         "min" : [ 0 ],
         "name" : "buffer-0-accessor-indices-buffer-0-mesh-0",
         "type" : "SCALAR"
      },
      {
         "bufferView" : 2,
         "componentType" : 5126,
         "count" : 1968,
         "max" : [ 1.996458053588867, 9.620664596557617, 1.763818025588989 ],
         "min" : [ -1.931331038475037, 0, -1.722576022148132 ],
         "name" : "buffer-0-accessor-position-buffer-0-mesh-0",
         "type" : "VEC3"
      },
      {
         "bufferView" : 2,
         "byteOffset" : 23616,
         "componentType" : 5126,
         "count" : 1968,
         "max" : [ 0.9786999821662903, 0.980400025844574, 0.9855999946594238 ],
         "min" : [ -0.9779000282287598, -0.9801999926567078, -0.9860000014305115 ],
         "name" : "buffer-0-accessor-normal-buffer-0-mesh-0",
         "type" : "VEC3"
      },
      {
         "bufferView" : 1,
         "componentType" : 5126,
         "count" : 0,
         "max" : [ 0, 0 ],
         "min" : [ 0, 0 ],
         "name" : "buffer-0-accessor-texcoord-buffer-0-mesh-0",
         "type" : "VEC2"
      },
      {
         "bufferView" : 3,
         "componentType" : 5126,
         "count" : 0,
         "max" : [ 0, 0, 0, 0 ],
         "min" : [ 0, 0, 0, 0 ],
         "name" : "buffer-0-accessor-color-buffer-0-mesh-0",
         "type" : "VEC4"
      },
      {
         "bufferView" : 0,
         "byteOffset" : 3936,
         "componentType" : 5123,
         "count" : 2382,
         "max" : [ 2381 ],
         "min" : [ 0 ],
         "name" : "buffer-0-accessor-indices-buffer-0-mesh-0",
         "type" : "SCALAR"
      },
      {
         "bufferView" : 2,
         "byteOffset" : 47232,
         "componentType" : 5126,
         "count" : 2382,
         "max" : [ 1.465913057327271, 6.841866970062256, 2.626384019851685 ],
         "min" : [ -1.565433025360107, -0.4925360083580017, -2.630568981170654 ],
         "name" : "buffer-0-accessor-position-buffer-0-mesh-0",
         "type" : "VEC3"
      },
      {
         "bufferView" : 2,
         "byteOffset" : 75816,
         "componentType" : 5126,
         "count" : 2382,
         "max" : [ 0.9957000017166138, 0.9993000030517578, 0.991100013256073 ],
         "min" : [ -0.9965999722480774, -0.9990000128746033, -0.9943000078201294 ],
         "name" : "buffer-0-accessor-normal-buffer-0-mesh-0",
         "type" : "VEC3"
      },
      {
         "bufferView" : 1,
         "componentType" : 5126,
         "count" : 0,
         "max" : [ 0, 0 ],
         "min" : [ 0, 0 ],
         "name" : "buffer-0-accessor-texcoord-buffer-0-mesh-0",
         "type" : "VEC2"
      },
      {
         "bufferView" : 3,
         "componentType" : 5126,
         "count" : 0,
         "max" : [ 0, 0, 0, 0 ],
         "min" : [ 0, 0, 0, 0 ],
         "name" : "buffer-0-accessor-color-buffer-0-mesh-0",
         "type" : "VEC4"
      }
   ],
   "asset" : {
      "generator" : "Obj2GltfConverter",
      "version" : "2.0"
   },
   "bufferViews" : [
      {
         "buffer" : 0,
         "byteLength" : 8700,
         "byteStride" : 0,
         "name" : "buffer-0-bufferview-ushort",
         "target" : 34963
      },
      {
         "buffer" : 0,
         "byteLength" : 1,
         "name" : "buffer-0-bufferview-vec2"
      },
      {
         "buffer" : 0,
         "byteLength" : 104400,
         "byteOffset" : 8712,
         "byteStride" : 12,
         "name" : "buffer-0-bufferview-vec3",
         "target" : 34962
      },
      {
         "buffer" : 0,
         "byteLength" : 1,
         "name" : "buffer-0-bufferview-vec4"
      }
   ],
   "buffers" : [
      {
         "byteLength" : 113120,
         "name" : "buffer-0",
         "uri" : "Rose_01.bin"
      }
   ],
   "materials" : [
      {
         "doubleSided" : true,
         "name" : "F44336",
         "pbrMetallicRoughness" : {
            "baseColorFactor" : [ 0.956863, 0.262745, 0.211765, 1 ],
            "metallicFactor" : 0,
            "roughnessFactor" : 0.7448017359246658
         }
      },
      {
         "doubleSided" : true,
         "name" : "4CAF50",
         "pbrMetallicRoughness" : {
            "baseColorFactor" : [ 0.298039, 0.686275, 0.313726, 1 ],
            "metallicFactor" : 0,
            "roughnessFactor" : 0.7448017359246658
         }
      }
   ],
   "meshes" : [
      {
         "name" : "buffer-0-mesh-0",
         "primitives" : [
            {
               "attributes" : {
                  "NORMAL" : 2,
                  "POSITION" : 1,
                  "TEXCOORD_0" : 3
               },
               "indices" : 0,
               "material" : 0
            },
            {
               "attributes" : {
                  "NORMAL" : 7,
                  "POSITION" : 6,
                  "TEXCOORD_0" : 8
               },
               "indices" : 5,
               "material" : 1
            }
         ]
      }
   ],
   "nodes" : [
      {
         "mesh" : 0,
         "name" : "node-0"
      }
   ],
   "scenes" : [
      {
         "name" : "scene-0",
         "nodes" : [ 0 ]
      }
   ]
}
